<svg width="32" height="32" viewBox="0 0 32 32" fill="none" xmlns="http://www.w3.org/2000/svg">
<path d="M27.3538 13.9691L17.3538 4.53412C17.3489 4.52986 17.3443 4.52527 17.34 4.52037C16.9718 4.18554 16.492 4 15.9944 4C15.4967 4 15.0169 4.18554 14.6488 4.52037L14.635 4.53412L4.64625 13.9691C4.4425 14.1565 4.27985 14.3841 4.16861 14.6376C4.05737 14.891 3.99996 15.1648 4 15.4416V26.9979C4 27.5283 4.21071 28.037 4.58579 28.4121C4.96086 28.7872 5.46957 28.9979 6 28.9979H12C12.5304 28.9979 13.0391 28.7872 13.4142 28.4121C13.7893 28.037 14 27.5283 14 26.9979V20.9979H18V26.9979C18 27.5283 18.2107 28.037 18.5858 28.4121C18.9609 28.7872 19.4696 28.9979 20 28.9979H26C26.5304 28.9979 27.0391 28.7872 27.4142 28.4121C27.7893 28.037 28 27.5283 28 26.9979V15.4416C28 15.1648 27.9426 14.891 27.8314 14.6376C27.7201 14.3841 27.5575 14.1565 27.3538 13.9691ZM26 26.9979H20V20.9979C20 20.4674 19.7893 19.9587 19.4142 19.5837C19.0391 19.2086 18.5304 18.9979 18 18.9979H14C13.4696 18.9979 12.9609 19.2086 12.5858 19.5837C12.2107 19.9587 12 20.4674 12 20.9979V26.9979H6V15.4416L6.01375 15.4291L16 5.99787L25.9875 15.4266L26.0012 15.4391L26 26.9979Z" fill="#292929"/>
</svg>
