<svg width="321" height="129" viewBox="0 0 321 129" fill="none" xmlns="http://www.w3.org/2000/svg">
<path d="M66.6552 2.70475C70.7124 1.81457 74.9092 1.76717 78.9855 2.56551C87.7743 4.30845 93.1468 9.52324 95.0751 11.446C96.4674 12.8348 104.691 21.2951 104.992 34.1046C105.142 40.4619 103.239 45.2905 102.16 48.2084C100.388 53.009 97.9394 57.6674 94.2427 61.2089C85.557 69.5294 80.4514 67.2751 73.7476 75.7754C70.4806 79.9184 68.7362 84.4836 67.2266 88.4342C65.7038 92.421 64.5765 96.5477 63.861 100.755C62.6384 100.508 61.3232 100.185 59.9379 99.7628C59.0103 99.4798 58.1348 99.1783 57.3185 98.8683L32.8657 89.2836C34.1529 86.3787 35.8518 82.4461 37.7585 77.7237C39.9622 72.2645 40.3674 70.8942 40.6634 69.5249C41.3821 66.2063 41.4257 63.0765 40.5482 56.3276C39.0712 44.9679 37.6974 44.2147 37.5732 39.1036C37.4039 32.1719 39.82 26.3196 41.8844 22.3704C46.9525 12.6756 54.8768 7.57445 58.7248 5.45037" stroke="#58CBFB" stroke-width="3.79071" stroke-miterlimit="10" stroke-linecap="round"/>
<path d="M71.6395 77.5491C61.4223 73.5473 51.1133 69.7938 40.7124 66.2886" stroke="#58CBFB" stroke-width="3.79071" stroke-miterlimit="10" stroke-linecap="round"/>
<path d="M67.229 88.4342C57.6709 84.728 48.1844 80.8456 38.7695 76.7871" stroke="#58CBFB" stroke-width="3.79071" stroke-miterlimit="10" stroke-linecap="round"/>
<path d="M57.2966 99.3937C56.5044 101.609 55.3405 103.673 53.8548 105.497C49.4894 110.839 43.6421 112.421 41.4063 112.901C39.099 109.11 37.8917 104.751 37.9194 100.313C37.9561 97.685 38.437 95.082 39.3418 92.6143" stroke="#58CBFB" stroke-width="3.79071" stroke-miterlimit="10" stroke-linecap="round"/>
<path d="M64.0615 73.9163C67.6589 64.3478 71.5713 54.9058 75.7988 45.5901C77.746 41.2998 80.2187 36.6175 84.7027 35.1725C85.9739 34.7628 87.528 34.7152 88.4821 35.6503C89.8529 36.9936 88.9775 39.5379 87.2946 40.4584C85.6118 41.379 83.5523 41.1511 81.6631 40.814C76.3904 39.8737 71.2475 38.3131 66.3413 36.1647C63.6087 34.9677 60.8771 33.5287 58.9754 31.2304C57.7398 29.7373 57.0932 27.1425 58.74 26.1218C59.9506 25.3705 61.6489 26.1634 62.329 27.4155C63.0092 28.6676 62.9301 30.1841 62.7407 31.596C62.1668 35.8472 60.7494 39.932 59.34 43.9834L50.6123 69.0717" stroke="#58CBFB" stroke-width="3.79071" stroke-miterlimit="10" stroke-linecap="round"/>
<path d="M72.6917 77.9932L84.6213 89.9253C84.9842 90.2258 85.2533 90.6242 85.3966 91.0732C85.4743 91.529 85.3971 91.9977 85.1772 92.4045C84.7765 93.2344 83.6917 99.8249 81.2421 118.565L63.8628 100.755" stroke="#58CBFB" stroke-width="3.79071" stroke-miterlimit="10" stroke-linecap="round"/>
<path d="M40.5504 66.1338L23.679 66.3706C23.2092 66.3331 22.7385 66.431 22.3227 66.6526C21.9494 66.9254 21.678 67.3152 21.5519 67.76C21.2599 68.639 17.1284 74.266 5 89.6629C13.6696 89.3124 24.1953 88.9332 32.8654 88.5811" stroke="#58CBFB" stroke-width="3.79071" stroke-miterlimit="10" stroke-linecap="round"/>
<path d="M68.0945 110.975L63.6265 122.002" stroke="#58CBFB" stroke-width="3.79071" stroke-miterlimit="10" stroke-linecap="round"/>
<path d="M60.7332 114.584L55.6611 127.102" stroke="#58CBFB" stroke-width="3.79071" stroke-miterlimit="10" stroke-linecap="round"/>
<path d="M29.1241 95.8799C27.4048 99.931 25.5941 103.942 23.6919 107.913" stroke="#58CBFB" stroke-width="3.79071" stroke-miterlimit="10" stroke-linecap="round"/>
<path d="M20.401 99.6304L14.457 113.53" stroke="#58CBFB" stroke-width="3.79071" stroke-miterlimit="10" stroke-linecap="round"/>
<path d="M176.203 66.2077C176.009 66.5722 175.723 66.8796 175.373 67.0992C175.023 67.3188 174.622 67.443 174.21 67.4594C172.819 67.4803 170.556 65.7154 170.161 65.4052C169.766 65.0951 166.363 61.5235 163.747 60.4442C162.339 59.8436 160.812 59.5725 159.283 59.6516C157.754 59.7306 156.264 60.1578 154.925 60.9004C154.925 60.9004 148.829 63.9602 145.231 74.7528C141.633 85.5454 141.577 94.2921 145.452 97.4478C149.327 100.604 153.867 98.1669 156.911 96.8915C159.956 95.6162 165.047 92.5801 166.763 92.4076C168.48 92.2351 169.587 92.6857 168.978 95.6732C167.371 101.243 165.317 106.674 162.833 111.912C160.169 113.911 157.177 115.428 153.99 116.396C149.466 117.716 144.683 117.873 140.082 116.852C135.931 115.98 131.226 113.185 126.963 108.591C122.7 103.997 120.148 94.5661 121.261 83.3855C122.373 72.2048 128.954 59.7502 136.483 52.1662C144.011 44.5822 150.764 42.037 157.406 41.7603C161.25 41.7751 165.039 42.6695 168.483 44.3748C171.927 46.0802 174.936 48.5512 177.278 51.5988C177.488 51.9163 177.642 52.2671 177.734 52.6363C177.734 52.6363 178.196 63.6473 176.203 66.2077Z" fill="#58CBFB"/>
<path d="M210.037 43.8145L191.4 117.454H179.817C179.817 117.454 174.461 117.662 173.002 115.752C171.543 113.843 171.84 112.099 172.712 107.947C173.584 103.795 185.871 54.8991 185.871 54.8991C185.871 54.8991 187.574 48.0842 189.193 46.3471C190.812 44.61 192.846 43.8145 196.54 43.8145H210.037Z" fill="#58CBFB"/>
<path d="M206.676 11.0059C206.676 11.0059 212.613 10.7569 215.686 14.0364C216.813 15.214 217.502 16.7428 217.638 18.3674C217.774 19.992 217.349 21.6141 216.433 22.9626C215.228 24.7887 212.032 29.854 202.152 29.854C192.272 29.854 192.146 23.4563 192.146 22.3812C192.261 20.0185 193.253 17.7834 194.928 16.1129C196.392 14.4526 198.204 13.1345 200.234 12.252C202.264 11.3694 204.463 10.944 206.676 11.0059Z" fill="#58CBFB"/>
<path d="M224.153 43.8161H214.729L210.744 59.8826H220.168L205.426 117.462H220.376C220.376 117.462 226.773 117.704 229.011 109.235C231.249 100.767 241.466 59.923 241.466 59.923H249.934C251.09 59.949 252.238 59.7221 253.297 59.2582C253.987 58.8932 254.578 58.3663 255.019 57.7226C255.46 57.0789 255.738 56.3378 255.83 55.5628C256.535 52.7812 257.947 47.3432 257.947 47.3432C258.072 46.9256 258.092 46.4834 258.005 46.056C257.919 45.6287 257.727 45.2295 257.449 44.894C256.568 44.1544 255.442 43.7696 254.293 43.8147H245.948L252.763 17.7025C253.177 16.3577 253.074 14.9066 252.472 13.6344C251.429 11.9321 249.56 11.1421 246.364 11.1421C243.169 11.3593 240.036 12.1321 237.107 13.4258C234.801 14.3147 232.748 15.7543 231.126 17.619L224.153 43.8161Z" fill="#58CBFB"/>
<path d="M239.222 96.0975V108.738C240.21 108.683 241.161 108.345 241.962 107.765C243.844 106.686 254.112 98.3896 255.579 97.6983C257.047 97.0071 260.672 94.9863 263.771 98.2546C266.87 101.523 270.03 106.246 271.742 108.156C273.454 110.065 273.707 110.203 274.731 111.366C276.801 113.677 279.488 115.348 282.476 116.183C289.593 118.025 297.091 117.765 304.064 115.437C313.751 112.364 316.463 110.953 319.175 107.3C321.887 103.648 320.919 97.1226 320.393 96.238C320.083 95.727 319.868 95.1646 319.756 94.5774C318.724 94.6563 317.717 94.9399 316.795 95.4118C315.3 96.1865 313.225 97.1281 311.425 98.0419C308.51 99.1672 305.524 100.101 302.487 100.837C300.809 101.07 299.104 101.005 297.449 100.644C296.237 100.077 295.189 99.21 294.405 98.1253C293.181 96.2619 292.081 94.3203 291.111 92.3131C290.03 90.1397 289.213 87.8449 288.676 85.4774C288.372 83.2042 287.465 81.054 286.048 79.2508C283.545 77.6792 280.834 76.4679 277.993 75.6528C275.732 74.826 273.252 74.826 270.991 75.6528C270.156 76.07 267.809 77.0088 266.479 77.7835C265.149 78.5582 256.985 83.5956 252.253 86.7235C247.52 89.8515 243.119 92.8125 241.735 93.8917C240.792 94.4969 239.945 95.2405 239.222 96.0975Z" fill="#58CBFB"/>
<path d="M286.674 38.7514C286.674 38.7514 278.704 41.4913 274.51 44.7318C270.317 47.9724 270.026 48.1782 269.612 51.3326C269.197 54.4869 270.277 58.224 274.179 59.3032C277.924 60.111 281.793 60.1536 285.555 59.4284C289.512 58.5563 293.271 56.9525 296.639 54.6997C298.362 53.1076 299.77 51.2063 300.791 49.0948C301.165 48.5551 301.6 46.8945 302.451 45.1713C303.475 43.5923 304.109 41.7921 304.298 39.9197C304.277 38.0101 303.881 35.8099 299.172 35.8307C294.868 36.072 290.639 37.0603 286.674 38.7514Z" fill="#58CBFB"/>
</svg>
