<svg width="219" height="24" viewBox="0 0 219 24" fill="none" xmlns="http://www.w3.org/2000/svg">
<path d="M9.50325 9.792C10.3033 9.792 10.9326 10.032 11.3913 10.512C11.8606 10.992 12.0953 11.648 12.0953 12.48V17.84C12.0953 17.9467 12.0419 18 11.9353 18H11.1353C11.0286 18 10.9753 17.9467 10.9753 17.84V12.704C10.9753 12.1173 10.8046 11.6533 10.4633 11.312C10.1326 10.96 9.69525 10.784 9.15125 10.784C8.58592 10.784 8.12725 10.9547 7.77525 11.296C7.43392 11.6373 7.26325 12.096 7.26325 12.672V17.84C7.26325 17.9467 7.20992 18 7.10325 18H6.28725C6.18058 18 6.12725 17.9467 6.12725 17.84V12.704C6.12725 12.1173 5.96192 11.6533 5.63125 11.312C5.30058 10.96 4.85792 10.784 4.30325 10.784C3.73792 10.784 3.28458 10.9547 2.94325 11.296C2.61258 11.6373 2.44725 12.096 2.44725 12.672V17.84C2.44725 17.9467 2.39392 18 2.28725 18H1.47125C1.36458 18 1.31125 17.9467 1.31125 17.84V10.064C1.31125 9.95733 1.36458 9.904 1.47125 9.904H2.28725C2.39392 9.904 2.44725 9.95733 2.44725 10.064V10.704C2.44725 10.7253 2.45258 10.7413 2.46325 10.752C2.48458 10.752 2.50592 10.7413 2.52725 10.72C2.76192 10.4107 3.06058 10.1813 3.42325 10.032C3.79658 9.872 4.20725 9.792 4.65525 9.792C5.20992 9.792 5.68458 9.904 6.07925 10.128C6.47392 10.352 6.77258 10.6773 6.97525 11.104C6.99658 11.1573 7.02325 11.1573 7.05525 11.104C7.28992 10.6667 7.62058 10.3413 8.04725 10.128C8.47392 9.904 8.95925 9.792 9.50325 9.792ZM17.3456 9.776C18.3056 9.776 19.047 10.0213 19.5696 10.512C20.0923 11.0027 20.3536 11.6533 20.3536 12.464V17.84C20.3536 17.9467 20.3003 18 20.1936 18H19.3776C19.271 18 19.2176 17.9467 19.2176 17.84V17.184C19.2176 17.1627 19.207 17.1467 19.1856 17.136C19.175 17.1253 19.159 17.1307 19.1376 17.152C18.871 17.472 18.5243 17.7173 18.0976 17.888C17.671 18.048 17.1963 18.128 16.6736 18.128C15.9163 18.128 15.2816 17.936 14.7696 17.552C14.2576 17.168 14.0016 16.5813 14.0016 15.792C14.0016 14.992 14.2896 14.3627 14.8656 13.904C15.4523 13.4347 16.263 13.2 17.2976 13.2H19.1536C19.1963 13.2 19.2176 13.1787 19.2176 13.136V12.528C19.2176 11.984 19.063 11.5573 18.7536 11.248C18.455 10.928 17.9856 10.768 17.3456 10.768C16.8336 10.768 16.4176 10.8693 16.0976 11.072C15.7776 11.264 15.5803 11.536 15.5056 11.888C15.4736 11.9947 15.4096 12.0427 15.3136 12.032L14.4496 11.92C14.3323 11.8987 14.2843 11.856 14.3056 11.792C14.391 11.1947 14.711 10.7093 15.2656 10.336C15.8203 9.96267 16.5136 9.776 17.3456 9.776ZM16.8976 17.152C17.527 17.152 18.071 16.9973 18.5296 16.688C18.9883 16.368 19.2176 15.9413 19.2176 15.408V14.16C19.2176 14.1173 19.1963 14.096 19.1536 14.096H17.4736C16.7696 14.096 16.2043 14.24 15.7776 14.528C15.351 14.816 15.1376 15.216 15.1376 15.728C15.1376 16.1973 15.2976 16.5547 15.6176 16.8C15.9483 17.0347 16.375 17.152 16.8976 17.152ZM27.7415 6.96C27.7415 6.85333 27.7948 6.8 27.9015 6.8H28.7175C28.8242 6.8 28.8775 6.85333 28.8775 6.96V17.84C28.8775 17.9467 28.8242 18 28.7175 18H27.9015C27.7948 18 27.7415 17.9467 27.7415 17.84V17.168C27.7415 17.1467 27.7308 17.136 27.7095 17.136C27.6988 17.1253 27.6828 17.1307 27.6615 17.152C27.4268 17.4613 27.1335 17.7013 26.7815 17.872C26.4402 18.0427 26.0562 18.128 25.6295 18.128C24.8828 18.128 24.2535 17.936 23.7415 17.552C23.2402 17.168 22.8935 16.6453 22.7015 15.984C22.5522 15.504 22.4775 14.8267 22.4775 13.952C22.4775 13.0667 22.5415 12.4053 22.6695 11.968C22.8615 11.2853 23.2135 10.752 23.7255 10.368C24.2375 9.97333 24.8722 9.776 25.6295 9.776C26.0455 9.776 26.4295 9.86133 26.7815 10.032C27.1335 10.192 27.4268 10.4267 27.6615 10.736C27.6828 10.7573 27.6988 10.768 27.7095 10.768C27.7308 10.7573 27.7415 10.7413 27.7415 10.72V6.96ZM27.4535 15.904C27.5495 15.6907 27.6188 15.44 27.6615 15.152C27.7042 14.864 27.7255 14.464 27.7255 13.952C27.7255 13.44 27.7042 13.04 27.6615 12.752C27.6188 12.4533 27.5442 12.192 27.4375 11.968C27.3095 11.6053 27.0962 11.3173 26.7975 11.104C26.5095 10.88 26.1628 10.768 25.7575 10.768C25.3308 10.768 24.9628 10.8747 24.6535 11.088C24.3442 11.3013 24.1202 11.584 23.9815 11.936C23.8535 12.1707 23.7575 12.4373 23.6935 12.736C23.6402 13.024 23.6135 13.4293 23.6135 13.952C23.6135 14.4533 23.6348 14.848 23.6775 15.136C23.7202 15.4133 23.7948 15.664 23.9015 15.888C24.0295 16.272 24.2535 16.576 24.5735 16.8C24.9042 17.024 25.2935 17.136 25.7415 17.136C26.1682 17.136 26.5255 17.024 26.8135 16.8C27.1015 16.576 27.3148 16.2773 27.4535 15.904ZM37.6599 12.592C37.7025 12.8907 37.7239 13.264 37.7239 13.712V14.224C37.7239 14.3307 37.6705 14.384 37.5639 14.384H32.3959C32.3532 14.384 32.3319 14.4053 32.3319 14.448C32.3532 15.0347 32.3852 15.4133 32.4279 15.584C32.5452 16.064 32.7959 16.4427 33.1799 16.72C33.5639 16.9973 34.0545 17.136 34.6519 17.136C35.0999 17.136 35.4945 17.0347 35.8359 16.832C36.1772 16.6293 36.4439 16.3413 36.6359 15.968C36.6999 15.872 36.7745 15.8507 36.8599 15.904L37.4839 16.272C37.5692 16.3253 37.5905 16.4 37.5479 16.496C37.2812 17.008 36.8812 17.4133 36.3479 17.712C35.8145 18 35.2012 18.144 34.5079 18.144C33.7505 18.1333 33.1159 17.952 32.6039 17.6C32.0919 17.248 31.7239 16.7573 31.4999 16.128C31.3079 15.616 31.2119 14.88 31.2119 13.92C31.2119 13.472 31.2172 13.1093 31.2279 12.832C31.2492 12.544 31.2919 12.288 31.3559 12.064C31.5372 11.3707 31.8999 10.816 32.4439 10.4C32.9985 9.984 33.6652 9.776 34.4439 9.776C35.4145 9.776 36.1612 10.0213 36.6839 10.512C37.2065 11.0027 37.5319 11.696 37.6599 12.592ZM34.4439 10.768C33.9212 10.768 33.4839 10.9067 33.1319 11.184C32.7905 11.4507 32.5665 11.8133 32.4599 12.272C32.3959 12.496 32.3532 12.8587 32.3319 13.36C32.3319 13.4027 32.3532 13.424 32.3959 13.424H36.5399C36.5825 13.424 36.6039 13.4027 36.6039 13.36C36.5825 12.88 36.5505 12.5387 36.5079 12.336C36.3905 11.856 36.1505 11.4773 35.7879 11.2C35.4359 10.912 34.9879 10.768 34.4439 10.768ZM44.8663 18C44.7809 18 44.7223 17.9573 44.6903 17.872L42.4183 10.08L42.4023 10.032C42.4023 9.94667 42.4556 9.904 42.5623 9.904H43.3943C43.4903 9.904 43.5489 9.952 43.5703 10.048L45.2663 16.352C45.2769 16.3733 45.2876 16.384 45.2983 16.384C45.3196 16.384 45.3356 16.3733 45.3463 16.352L47.0743 10.048C47.0956 9.952 47.1543 9.904 47.2503 9.904H48.0183C48.1143 9.904 48.1729 9.94667 48.1943 10.032L49.9383 16.336C49.9489 16.3573 49.9649 16.368 49.9862 16.368C50.0076 16.368 50.0236 16.3573 50.0343 16.336L51.7783 10.048C51.7996 9.952 51.8583 9.904 51.9543 9.904L52.7863 9.92C52.8396 9.92 52.8769 9.936 52.8983 9.968C52.9303 10 52.9409 10.0427 52.9303 10.096L50.6263 17.872C50.5943 17.9573 50.5356 18 50.4503 18H49.6023C49.5169 18 49.4583 17.9573 49.4263 17.872L47.6823 11.888C47.6716 11.8667 47.6556 11.856 47.6343 11.856C47.6236 11.856 47.6129 11.8667 47.6023 11.888L45.9062 17.872C45.8743 17.9573 45.8156 18 45.7303 18H44.8663ZM55.4855 8.432C55.2295 8.432 55.0162 8.34667 54.8455 8.176C54.6748 8.00533 54.5895 7.792 54.5895 7.536C54.5895 7.26933 54.6748 7.056 54.8455 6.896C55.0162 6.72533 55.2295 6.64 55.4855 6.64C55.7415 6.64 55.9548 6.72533 56.1255 6.896C56.2962 7.056 56.3815 7.26933 56.3815 7.536C56.3815 7.792 56.2962 8.00533 56.1255 8.176C55.9548 8.34667 55.7415 8.432 55.4855 8.432ZM55.0375 17.984C54.9308 17.984 54.8775 17.9307 54.8775 17.824V10.048C54.8775 9.94133 54.9308 9.888 55.0375 9.888H55.8535C55.9602 9.888 56.0135 9.94133 56.0135 10.048V17.824C56.0135 17.9307 55.9602 17.984 55.8535 17.984H55.0375ZM62.4276 10.688C62.4276 10.7947 62.3743 10.848 62.2676 10.848H60.4596C60.417 10.848 60.3956 10.8693 60.3956 10.912V15.632C60.3956 16.144 60.5076 16.5067 60.7316 16.72C60.9663 16.9227 61.329 17.024 61.8196 17.024H62.2196C62.3263 17.024 62.3796 17.0773 62.3796 17.184V17.84C62.3796 17.9467 62.3263 18 62.2196 18C62.0916 18.0107 61.8943 18.016 61.6276 18.016C60.8596 18.016 60.2783 17.872 59.8836 17.584C59.489 17.296 59.2916 16.7627 59.2916 15.984V10.912C59.2916 10.8693 59.2703 10.848 59.2276 10.848H58.2516C58.145 10.848 58.0916 10.7947 58.0916 10.688V10.064C58.0916 9.95733 58.145 9.904 58.2516 9.904H59.2276C59.2703 9.904 59.2916 9.88267 59.2916 9.84V7.984C59.2916 7.87733 59.345 7.824 59.4516 7.824H60.2356C60.3423 7.824 60.3956 7.87733 60.3956 7.984V9.84C60.3956 9.88267 60.417 9.904 60.4596 9.904H62.2676C62.3743 9.904 62.4276 9.95733 62.4276 10.064V10.688ZM67.9838 9.792C68.8371 9.792 69.5144 10.0427 70.0158 10.544C70.5278 11.0453 70.7838 11.7173 70.7838 12.56V17.84C70.7838 17.9467 70.7304 18 70.6238 18H69.8078C69.7011 18 69.6478 17.9467 69.6478 17.84V12.784C69.6478 12.1973 69.4664 11.7173 69.1038 11.344C68.7518 10.9707 68.2931 10.784 67.7278 10.784C67.1411 10.784 66.6664 10.9653 66.3038 11.328C65.9411 11.6907 65.7598 12.1653 65.7598 12.752V17.84C65.7598 17.9467 65.7064 18 65.5998 18H64.7838C64.6771 18 64.6238 17.9467 64.6238 17.84V6.96C64.6238 6.85333 64.6771 6.8 64.7838 6.8H65.5998C65.7064 6.8 65.7598 6.85333 65.7598 6.96V10.752C65.7598 10.7733 65.7651 10.7893 65.7758 10.8C65.7971 10.8107 65.8131 10.8053 65.8238 10.784C66.2931 10.1227 67.0131 9.792 67.9838 9.792Z" fill="black"/>
<path d="M106.478 9.776C107.438 9.776 108.18 10.0213 108.702 10.512C109.225 11.0027 109.486 11.6533 109.486 12.464V17.84C109.486 17.9467 109.433 18 109.326 18H108.51C108.404 18 108.35 17.9467 108.35 17.84V17.184C108.35 17.1627 108.34 17.1467 108.318 17.136C108.308 17.1253 108.292 17.1307 108.27 17.152C108.004 17.472 107.657 17.7173 107.23 17.888C106.804 18.048 106.329 18.128 105.806 18.128C105.049 18.128 104.414 17.936 103.902 17.552C103.39 17.168 103.134 16.5813 103.134 15.792C103.134 14.992 103.422 14.3627 103.998 13.904C104.585 13.4347 105.396 13.2 106.43 13.2H108.286C108.329 13.2 108.35 13.1787 108.35 13.136V12.528C108.35 11.984 108.196 11.5573 107.886 11.248C107.588 10.928 107.118 10.768 106.478 10.768C105.966 10.768 105.55 10.8693 105.23 11.072C104.91 11.264 104.713 11.536 104.638 11.888C104.606 11.9947 104.542 12.0427 104.446 12.032L103.582 11.92C103.465 11.8987 103.417 11.856 103.438 11.792C103.524 11.1947 103.844 10.7093 104.398 10.336C104.953 9.96267 105.646 9.776 106.478 9.776ZM106.03 17.152C106.66 17.152 107.204 16.9973 107.662 16.688C108.121 16.368 108.35 15.9413 108.35 15.408V14.16C108.35 14.1173 108.329 14.096 108.286 14.096H106.606C105.902 14.096 105.337 14.24 104.91 14.528C104.484 14.816 104.27 15.216 104.27 15.728C104.27 16.1973 104.43 16.5547 104.75 16.8C105.081 17.0347 105.508 17.152 106.03 17.152ZM115.21 9.792C116.064 9.792 116.741 10.0427 117.242 10.544C117.754 11.0453 118.01 11.7173 118.01 12.56V17.84C118.01 17.9467 117.957 18 117.85 18H117.034C116.928 18 116.874 17.9467 116.874 17.84V12.784C116.874 12.1973 116.693 11.7173 116.33 11.344C115.978 10.9707 115.52 10.784 114.954 10.784C114.368 10.784 113.893 10.9653 113.53 11.328C113.168 11.6907 112.986 12.1653 112.986 12.752V17.84C112.986 17.9467 112.933 18 112.826 18H112.01C111.904 18 111.85 17.9467 111.85 17.84V10.064C111.85 9.95733 111.904 9.904 112.01 9.904H112.826C112.933 9.904 112.986 9.95733 112.986 10.064V10.752C112.986 10.7733 112.992 10.7893 113.002 10.8C113.024 10.8107 113.04 10.8053 113.05 10.784C113.52 10.1227 114.24 9.792 115.21 9.792ZM125.39 6.96C125.39 6.85333 125.443 6.8 125.55 6.8H126.366C126.473 6.8 126.526 6.85333 126.526 6.96V17.84C126.526 17.9467 126.473 18 126.366 18H125.55C125.443 18 125.39 17.9467 125.39 17.84V17.168C125.39 17.1467 125.379 17.136 125.358 17.136C125.347 17.1253 125.331 17.1307 125.31 17.152C125.075 17.4613 124.782 17.7013 124.43 17.872C124.089 18.0427 123.705 18.128 123.278 18.128C122.531 18.128 121.902 17.936 121.39 17.552C120.889 17.168 120.542 16.6453 120.35 15.984C120.201 15.504 120.126 14.8267 120.126 13.952C120.126 13.0667 120.19 12.4053 120.318 11.968C120.51 11.2853 120.862 10.752 121.374 10.368C121.886 9.97333 122.521 9.776 123.278 9.776C123.694 9.776 124.078 9.86133 124.43 10.032C124.782 10.192 125.075 10.4267 125.31 10.736C125.331 10.7573 125.347 10.768 125.358 10.768C125.379 10.7573 125.39 10.7413 125.39 10.72V6.96ZM125.102 15.904C125.198 15.6907 125.267 15.44 125.31 15.152C125.353 14.864 125.374 14.464 125.374 13.952C125.374 13.44 125.353 13.04 125.31 12.752C125.267 12.4533 125.193 12.192 125.086 11.968C124.958 11.6053 124.745 11.3173 124.446 11.104C124.158 10.88 123.811 10.768 123.406 10.768C122.979 10.768 122.611 10.8747 122.302 11.088C121.993 11.3013 121.769 11.584 121.63 11.936C121.502 12.1707 121.406 12.4373 121.342 12.736C121.289 13.024 121.262 13.4293 121.262 13.952C121.262 14.4533 121.283 14.848 121.326 15.136C121.369 15.4133 121.443 15.664 121.55 15.888C121.678 16.272 121.902 16.576 122.222 16.8C122.553 17.024 122.942 17.136 123.39 17.136C123.817 17.136 124.174 17.024 124.462 16.8C124.75 16.576 124.963 16.2773 125.102 15.904ZM138.399 17.12C138.399 17.1733 138.378 17.216 138.335 17.248C138.303 17.2693 138.261 17.2693 138.207 17.248L131.759 14.24C131.685 14.1973 131.647 14.1387 131.647 14.064V13.296C131.647 13.2213 131.685 13.1627 131.759 13.12L138.207 10.112L138.271 10.096C138.357 10.096 138.399 10.144 138.399 10.24V11.024C138.399 11.1093 138.357 11.168 138.271 11.2L132.879 13.632C132.815 13.664 132.815 13.696 132.879 13.728L138.271 16.16C138.357 16.192 138.399 16.2507 138.399 16.336V17.12ZM139.679 18C139.562 18 139.519 17.9413 139.551 17.824L143.087 6.928C143.119 6.84267 143.183 6.8 143.279 6.8H144.079C144.197 6.8 144.239 6.85867 144.207 6.976L140.671 17.872C140.639 17.9573 140.575 18 140.479 18H139.679ZM146.182 17.264C146.096 17.264 146.054 17.216 146.054 17.12V16.336C146.054 16.2507 146.096 16.192 146.182 16.16L151.574 13.728C151.638 13.696 151.638 13.664 151.574 13.632L146.182 11.2C146.096 11.168 146.054 11.1093 146.054 11.024V10.24C146.054 10.1867 146.07 10.1493 146.102 10.128C146.144 10.096 146.192 10.0907 146.246 10.112L152.694 13.12C152.768 13.1627 152.806 13.2213 152.806 13.296V14.064C152.806 14.1387 152.768 14.1973 152.694 14.24L146.246 17.248L146.182 17.264ZM164.137 11.968C164.265 12.448 164.329 13.1093 164.329 13.952C164.329 14.8267 164.254 15.504 164.105 15.984C163.902 16.6453 163.55 17.168 163.049 17.552C162.547 17.936 161.923 18.128 161.177 18.128C160.75 18.128 160.361 18.0427 160.009 17.872C159.657 17.7013 159.363 17.456 159.129 17.136C159.118 17.1147 159.102 17.1093 159.081 17.12C159.059 17.12 159.049 17.1307 159.049 17.152V17.84C159.049 17.9467 158.995 18 158.889 18H158.073C157.966 18 157.913 17.9467 157.913 17.84V6.96C157.913 6.85333 157.966 6.8 158.073 6.8H158.889C158.995 6.8 159.049 6.85333 159.049 6.96V10.736C159.049 10.7573 159.054 10.7733 159.065 10.784C159.086 10.784 159.107 10.7733 159.129 10.752C159.363 10.4427 159.657 10.2027 160.009 10.032C160.361 9.86133 160.75 9.776 161.177 9.776C161.934 9.776 162.569 9.97333 163.081 10.368C163.593 10.752 163.945 11.2853 164.137 11.968ZM162.905 15.888C163.011 15.664 163.086 15.4133 163.129 15.136C163.171 14.848 163.193 14.4533 163.193 13.952C163.193 13.4293 163.161 13.024 163.097 12.736C163.043 12.4373 162.953 12.1707 162.825 11.936C162.686 11.584 162.462 11.3013 162.153 11.088C161.843 10.8747 161.475 10.768 161.049 10.768C160.643 10.768 160.291 10.88 159.993 11.104C159.705 11.3173 159.497 11.6053 159.369 11.968C159.262 12.192 159.182 12.448 159.129 12.736C159.086 13.024 159.065 13.4293 159.065 13.952C159.065 14.464 159.086 14.864 159.129 15.152C159.182 15.4293 159.257 15.68 159.353 15.904C159.491 16.2773 159.705 16.576 159.993 16.8C160.281 17.024 160.638 17.136 161.065 17.136C161.513 17.136 161.897 17.024 162.217 16.8C162.547 16.576 162.777 16.272 162.905 15.888ZM166.139 21.2C166.064 21.2 166.027 21.1467 166.027 21.04V20.4C166.027 20.2933 166.08 20.24 166.187 20.24H166.251C166.667 20.2293 166.987 20.1653 167.211 20.048C167.445 19.9413 167.643 19.7333 167.803 19.424C167.973 19.1253 168.155 18.6667 168.347 18.048C168.368 18.0053 168.368 17.9733 168.347 17.952L165.643 10.08L165.627 10.016C165.627 9.94133 165.675 9.904 165.771 9.904H166.619C166.715 9.904 166.779 9.94667 166.811 10.032L168.891 16.496C168.901 16.5173 168.917 16.528 168.939 16.528C168.96 16.528 168.976 16.5173 168.987 16.496L171.035 10.032C171.067 9.94667 171.131 9.904 171.227 9.904H172.059C172.176 9.904 172.219 9.96267 172.187 10.08L169.227 18.704C168.971 19.4187 168.731 19.9467 168.507 20.288C168.283 20.6293 168 20.864 167.659 20.992C167.328 21.1307 166.859 21.2 166.251 21.2H166.139Z" fill="black"/>
<path d="M189.316 11.318C189.276 11.3924 189.217 11.4551 189.145 11.4999C189.074 11.5447 188.992 11.5699 188.907 11.5732C188.622 11.5775 188.158 11.2159 188.077 11.1521C187.996 11.0883 187.298 10.3563 186.762 10.135C186.474 10.0119 186.161 9.95636 185.847 9.97258C185.534 9.9888 185.228 10.0764 184.954 10.2286C184.954 10.2286 183.704 10.8557 182.967 13.0684C182.229 15.2811 182.218 17.0741 183.012 17.721C183.806 18.3679 184.737 17.8685 185.361 17.6076C185.985 17.3467 187.029 16.7224 187.381 16.6884C187.733 16.6544 187.96 16.7451 187.835 17.358C187.506 18.4999 187.084 19.6132 186.575 20.687C186.029 21.0968 185.416 21.4078 184.762 21.6062C183.835 21.8767 182.854 21.9089 181.911 21.6998C181.06 21.5211 180.096 20.9479 179.222 20.0061C178.347 19.0642 177.826 17.1308 178.053 14.8387C178.28 12.5466 179.631 9.99324 181.173 8.43849C182.715 6.88374 184.1 6.3619 185.462 6.30518C186.25 6.30814 187.027 6.49147 187.733 6.84109C188.439 7.19072 189.056 7.69737 189.536 8.32221C189.579 8.38729 189.611 8.45922 189.63 8.53491C189.63 8.53491 189.724 10.793 189.316 11.318Z" fill="black"/>
<path d="M196.252 6.72729L192.431 21.8241H190.056C190.056 21.8241 188.958 21.8667 188.66 21.4753C188.362 21.0839 188.422 20.7263 188.601 19.8752C188.779 19.024 191.299 8.99986 191.299 8.99986C191.299 8.99986 191.647 7.60422 191.979 7.24658C192.311 6.88895 192.728 6.72729 193.486 6.72729H196.252Z" fill="black"/>
<path d="M195.563 0.00119527C195.563 0.00119527 196.78 -0.0498545 197.41 0.622584C197.641 0.863972 197.782 1.17737 197.81 1.51041C197.838 1.84346 197.751 2.17598 197.563 2.45243C197.316 2.8268 196.661 3.86538 194.635 3.86538C192.61 3.86538 192.584 2.55482 192.584 2.33388C192.608 1.84949 192.811 1.39129 193.154 1.04885C193.454 0.708341 193.826 0.437988 194.242 0.256941C194.658 0.0758946 195.109 -0.0114157 195.563 0.00119527Z" fill="black"/>
<path d="M199.146 6.7273H197.214L196.398 10.0211H198.33L195.309 21.8255H198.372C198.372 21.8255 199.682 21.8752 200.142 20.1389C200.602 18.4027 202.694 10.0297 202.694 10.0297H204.431C204.668 10.0351 204.903 9.98859 205.12 9.89352C205.261 9.8187 205.383 9.71068 205.473 9.57874C205.563 9.44679 205.621 9.29486 205.639 9.136C205.784 8.56594 206.073 7.45079 206.073 7.45079C206.099 7.36516 206.103 7.27445 206.086 7.18679C206.068 7.09912 206.028 7.01726 205.971 6.94852C205.791 6.79689 205.56 6.71802 205.324 6.7273H203.614L205.009 1.37389C205.094 1.09818 205.073 0.800631 204.95 0.539794C204.737 0.190954 204.354 0.0292969 203.699 0.0292969C203.044 0.0737661 202.402 0.232124 201.801 0.497253C201.329 0.679574 200.908 0.974688 200.576 1.35687L199.146 6.7273Z" fill="black"/>
<path d="M202.235 17.4457V20.0371C202.438 20.0261 202.633 19.9571 202.797 19.8385C203.183 19.6173 205.288 17.9165 205.589 17.7747C205.89 17.6329 206.633 17.2185 207.268 17.8881C207.904 18.5577 208.55 19.5263 208.902 19.9179C209.254 20.3096 209.305 20.3377 209.515 20.5762C209.94 21.0498 210.491 21.3923 211.104 21.5634C212.562 21.9406 214.099 21.8874 215.528 21.4103C217.513 20.7804 218.07 20.4911 218.626 19.7421C219.182 18.9931 218.983 17.6556 218.875 17.4732C218.812 17.3685 218.768 17.2532 218.745 17.1329C218.533 17.1487 218.327 17.2066 218.138 17.3031C217.831 17.4619 217.406 17.655 217.037 17.8419C216.439 18.0727 215.827 18.2641 215.204 18.4151C214.86 18.4628 214.511 18.4494 214.172 18.3754C213.923 18.2591 213.708 18.0813 213.548 17.8589C213.297 17.477 213.071 17.0791 212.872 16.6678C212.651 16.2222 212.483 15.7518 212.373 15.2665C212.311 14.8005 212.125 14.3598 211.834 13.9902C211.321 13.6681 210.765 13.4199 210.183 13.2528C209.719 13.0834 209.211 13.0834 208.748 13.2528C208.577 13.3379 208.095 13.5308 207.823 13.6896C207.55 13.8484 205.877 14.8807 204.906 15.5223C203.936 16.1638 203.035 16.7702 202.751 16.9916C202.557 17.1162 202.383 17.2693 202.235 17.4457Z" fill="black"/>
<path d="M211.963 5.68917C211.963 5.68917 210.329 6.251 209.47 6.91465C208.61 7.5783 208.55 7.62112 208.465 8.26775C208.38 8.91438 208.601 9.68069 209.401 9.90191C210.169 10.0674 210.962 10.0761 211.733 9.92743C212.544 9.74838 213.315 9.41933 214.005 8.95721C214.358 8.63083 214.647 8.24112 214.856 7.8083C214.933 7.6977 215.022 7.35708 215.196 7.00399C215.407 6.67996 215.536 6.3105 215.575 5.92627C215.571 5.53489 215.49 5.08367 214.524 5.08792C213.642 5.13834 212.776 5.34179 211.963 5.68917Z" fill="black"/>
<path d="M86.9998 21.4999L85.7915 20.4166C84.3887 19.1527 83.229 18.0624 82.3123 17.1458C81.3957 16.2291 80.6665 15.4062 80.1248 14.677C79.5832 13.9478 79.2047 13.2777 78.9894 12.6666C78.7741 12.0555 78.6665 11.4305 78.6665 10.7916C78.6665 9.48603 79.104 8.39575 79.979 7.52075C80.854 6.64575 81.9443 6.20825 83.2498 6.20825C83.9721 6.20825 84.6596 6.36103 85.3123 6.66659C85.9651 6.97214 86.5276 7.4027 86.9998 7.95825C87.4721 7.4027 88.0346 6.97214 88.6873 6.66659C89.3401 6.36103 90.0276 6.20825 90.7498 6.20825C92.0554 6.20825 93.1457 6.64575 94.0207 7.52075C94.8957 8.39575 95.3332 9.48603 95.3332 10.7916C95.3332 11.4305 95.2255 12.0555 95.0103 12.6666C94.795 13.2777 94.4165 13.9478 93.8748 14.677C93.3332 15.4062 92.604 16.2291 91.6873 17.1458C90.7707 18.0624 89.6109 19.1527 88.2082 20.4166L86.9998 21.4999Z" fill="black"/>
</svg>
