<svg width="260" height="320" viewBox="0 0 260 320" fill="none" xmlns="http://www.w3.org/2000/svg">
<path d="M160.548 3.778C170.784 1.53218 181.372 1.4126 191.656 3.42671C213.829 7.82393 227.384 20.9802 232.248 25.8311C235.761 29.3349 256.509 50.6791 257.267 82.9961C257.646 99.0346 252.845 111.217 250.123 118.578C245.651 130.69 239.475 142.442 230.148 151.377C208.236 172.368 195.355 166.681 178.442 188.126C170.2 198.579 165.799 210.096 161.99 220.063C158.148 230.121 155.304 240.532 153.499 251.147C150.415 250.524 147.097 249.71 143.601 248.644C141.261 247.93 139.053 247.169 136.993 246.387L75.3018 222.206C78.5491 214.877 82.8352 204.956 87.6456 193.042C93.2053 179.269 94.2275 175.812 94.9743 172.357C96.7875 163.985 96.8975 156.088 94.6837 139.062C90.9574 110.403 87.4915 108.503 87.1781 95.6078C86.751 78.12 92.8464 63.3553 98.0549 53.392C110.841 28.9331 130.833 16.0637 140.541 10.7049" stroke="#58CBFB" stroke-width="3.79071" stroke-miterlimit="10" stroke-linecap="round"/>
<path d="M173.123 192.601C147.346 182.505 121.338 173.035 95.0977 164.192" stroke="#58CBFB" stroke-width="3.79071" stroke-miterlimit="10" stroke-linecap="round"/>
<path d="M161.996 220.063C137.882 210.713 113.949 200.918 90.1963 190.679" stroke="#58CBFB" stroke-width="3.79071" stroke-miterlimit="10" stroke-linecap="round"/>
<path d="M136.938 247.713C134.94 253.302 132.003 258.509 128.255 263.112C117.242 276.588 102.49 280.578 96.849 281.79C91.0279 272.225 87.982 261.229 88.052 250.032C88.1444 243.402 89.3577 236.835 91.6405 230.609" stroke="#58CBFB" stroke-width="3.79071" stroke-miterlimit="10" stroke-linecap="round"/>
<path d="M154.005 183.436C163.081 159.296 172.951 135.475 183.617 111.972C188.529 101.149 194.768 89.3356 206.08 85.6902C209.287 84.6566 213.208 84.5366 215.615 86.8956C219.074 90.2845 216.865 96.7035 212.619 99.026C208.374 101.348 203.178 100.773 198.412 99.923C185.109 97.5507 172.134 93.6135 159.757 88.1934C152.863 85.1735 145.971 81.5432 141.173 75.7446C138.056 71.9779 136.425 65.4315 140.579 62.8563C143.633 60.9609 147.918 62.9612 149.634 66.1201C151.35 69.279 151.15 73.1051 150.673 76.6671C149.225 87.3923 145.649 97.6979 142.093 107.919L120.074 171.214" stroke="#58CBFB" stroke-width="3.79071" stroke-miterlimit="10" stroke-linecap="round"/>
<path d="M175.777 193.721L205.874 223.824C206.79 224.583 207.469 225.588 207.83 226.721C208.026 227.87 207.831 229.053 207.277 230.079C206.266 232.173 203.529 248.8 197.349 296.078L153.503 251.145" stroke="#58CBFB" stroke-width="3.79071" stroke-miterlimit="10" stroke-linecap="round"/>
<path d="M94.6894 163.801L52.1248 164.399C50.9396 164.304 49.7522 164.551 48.703 165.11C47.7612 165.798 47.0767 166.782 46.7584 167.904C46.0217 170.122 35.5986 184.318 5 223.162C26.8724 222.278 53.4275 221.321 75.3011 220.433" stroke="#58CBFB" stroke-width="3.79071" stroke-miterlimit="10" stroke-linecap="round"/>
<path d="M164.18 276.931L152.907 304.75" stroke="#58CBFB" stroke-width="3.79071" stroke-miterlimit="10" stroke-linecap="round"/>
<path d="M145.609 286.037L132.812 317.617" stroke="#58CBFB" stroke-width="3.79071" stroke-miterlimit="10" stroke-linecap="round"/>
<path d="M65.8619 238.847C61.5245 249.068 56.9563 259.187 52.1572 269.206" stroke="#58CBFB" stroke-width="3.79071" stroke-miterlimit="10" stroke-linecap="round"/>
<path d="M43.8544 248.31L28.8584 283.377" stroke="#58CBFB" stroke-width="3.79071" stroke-miterlimit="10" stroke-linecap="round"/>
</svg>
