<svg width="32" height="32" viewBox="0 0 32 32" fill="none" xmlns="http://www.w3.org/2000/svg">
<path d="M16.4121 3.104C13.841 3.104 11.3275 3.86644 9.1897 5.2949C7.05186 6.72336 5.38562 8.75368 4.40168 11.1291C3.41774 13.5046 3.1603 16.1184 3.66191 18.6402C4.16351 21.1619 5.40164 23.4783 7.21973 25.2964C9.03781 27.1145 11.3542 28.3526 13.8759 28.8542C16.3977 29.3558 19.0116 29.0984 21.387 28.1144C23.7624 27.1305 25.7928 25.4643 27.2212 23.3264C28.6497 21.1886 29.4121 18.6752 29.4121 16.104C29.4085 12.6573 28.0377 9.35282 25.6005 6.91564C23.1633 4.47845 19.8588 3.10764 16.4121 3.104ZM9.67212 24.7915C10.3955 23.6601 11.3921 22.729 12.57 22.0841C13.7479 21.4391 15.0692 21.1011 16.4121 21.1011C17.755 21.1011 19.0763 21.4391 20.2542 22.0841C21.4321 22.729 22.4287 23.6601 23.1521 24.7915C21.225 26.2902 18.8534 27.1039 16.4121 27.1039C13.9708 27.1039 11.5992 26.2902 9.67212 24.7915ZM12.4121 15.104C12.4121 14.3129 12.6467 13.5395 13.0862 12.8817C13.5258 12.2239 14.1505 11.7112 14.8814 11.4085C15.6123 11.1057 16.4166 11.0265 17.1925 11.1809C17.9684 11.3352 18.6811 11.7162 19.2405 12.2756C19.8 12.835 20.1809 13.5477 20.3353 14.3236C20.4896 15.0996 20.4104 15.9038 20.1076 16.6347C19.8049 17.3656 19.2922 17.9904 18.6344 18.4299C17.9766 18.8694 17.2032 19.104 16.4121 19.104C15.3512 19.104 14.3338 18.6826 13.5837 17.9324C12.8335 17.1823 12.4121 16.1649 12.4121 15.104ZM24.6321 23.4053C23.5168 21.7891 21.9486 20.5388 20.1246 19.8115C21.1044 19.0398 21.8193 17.982 22.17 16.7851C22.5207 15.5883 22.4897 14.3119 22.0814 13.1334C21.673 11.955 20.9076 10.9331 19.8915 10.2099C18.8755 9.48662 17.6593 9.09798 16.4121 9.09798C15.1649 9.09798 13.9488 9.48662 12.9327 10.2099C11.9166 10.9331 11.1512 11.955 10.7428 13.1334C10.3345 14.3119 10.3035 15.5883 10.6542 16.7851C11.0049 17.982 11.7198 19.0398 12.6996 19.8115C10.8756 20.5388 9.3074 21.7891 8.19212 23.4053C6.78283 21.8205 5.8617 19.8621 5.53967 17.7659C5.21764 15.6697 5.50842 13.5251 6.37701 11.5904C7.2456 9.65563 8.65496 8.01323 10.4354 6.86092C12.2158 5.70862 14.2913 5.09556 16.4121 5.09556C18.5329 5.09556 20.6084 5.70862 22.3889 6.86092C24.1693 8.01323 25.5786 9.65563 26.4472 11.5904C27.3158 13.5251 27.6066 15.6697 27.2846 17.7659C26.9625 19.8621 26.0414 21.8205 24.6321 23.4053Z" fill="#292929"/>
</svg>
